<svg xmlns="http://www.w3.org/2000/svg" width="637" height="158" viewBox="0 0 637 158" fill="none"><path d="M165.102 127H149.284L173.386 57.1818H192.409L216.477 127H200.659L183.17 73.1364H182.625L165.102 127ZM164.114 99.5568H201.477V111.08H164.114V99.5568ZM234.481 57.1818H252.685L271.912 104.091H272.731L291.958 57.1818H310.162V127H295.844V81.5568H295.265L277.197 126.659H267.447L249.378 81.3864H248.799V127H234.481V57.1818ZM369.799 77.2614C369.527 74.5114 368.356 72.375 366.288 70.8523C364.22 69.3295 361.413 68.5682 357.868 68.5682C355.459 68.5682 353.424 68.9091 351.765 69.5909C350.106 70.25 348.834 71.1705 347.947 72.3523C347.084 73.5341 346.652 74.875 346.652 76.375C346.606 77.625 346.868 78.7159 347.436 79.6477C348.027 80.5795 348.834 81.3864 349.856 82.0682C350.879 82.7273 352.061 83.3068 353.402 83.8068C354.743 84.2841 356.174 84.6932 357.697 85.0341L363.97 86.5341C367.015 87.2159 369.811 88.125 372.356 89.2614C374.902 90.3977 377.106 91.7955 378.97 93.4545C380.834 95.1136 382.277 97.0682 383.299 99.3182C384.345 101.568 384.879 104.148 384.902 107.057C384.879 111.33 383.788 115.034 381.629 118.17C379.493 121.284 376.402 123.705 372.356 125.432C368.334 127.136 363.481 127.989 357.799 127.989C352.163 127.989 347.254 127.125 343.072 125.398C338.913 123.67 335.663 121.114 333.322 117.727C331.004 114.318 329.788 110.102 329.674 105.08H343.959C344.118 107.42 344.788 109.375 345.97 110.943C347.174 112.489 348.777 113.659 350.777 114.455C352.799 115.227 355.084 115.614 357.629 115.614C360.129 115.614 362.299 115.25 364.14 114.523C366.004 113.795 367.447 112.784 368.47 111.489C369.493 110.193 370.004 108.705 370.004 107.023C370.004 105.455 369.538 104.136 368.606 103.068C367.697 102 366.356 101.091 364.584 100.341C362.834 99.5909 360.686 98.9091 358.14 98.2955L350.538 96.3864C344.652 94.9545 340.004 92.7159 336.595 89.6705C333.186 86.625 331.493 82.5227 331.515 77.3636C331.493 73.1364 332.618 69.4432 334.89 66.2841C337.186 63.125 340.334 60.6591 344.334 58.8864C348.334 57.1136 352.879 56.2273 357.97 56.2273C363.152 56.2273 367.674 57.1136 371.538 58.8864C375.424 60.6591 378.447 63.125 380.606 66.2841C382.765 69.4432 383.879 73.1023 383.947 77.2614H369.799Z" fill="white"></path><path d="M452.976 74.6364L434.669 127H418.306L399.999 74.6364H415.34L426.215 112.102H426.76L437.601 74.6364H452.976ZM492.184 128.023C486.798 128.023 482.161 126.932 478.275 124.75C474.411 122.545 471.434 119.432 469.343 115.409C467.252 111.364 466.207 106.58 466.207 101.057C466.207 95.6705 467.252 90.9432 469.343 86.875C471.434 82.8068 474.377 79.6364 478.173 77.3636C481.991 75.0909 486.468 73.9545 491.605 73.9545C495.059 73.9545 498.275 74.5114 501.252 75.625C504.252 76.7159 506.866 78.3636 509.093 80.5682C511.343 82.7727 513.093 85.5455 514.343 88.8864C515.593 92.2045 516.218 96.0909 516.218 100.545V104.534H472.002V95.5341H502.548C502.548 93.4432 502.093 91.5909 501.184 89.9773C500.275 88.3636 499.014 87.1023 497.4 86.1932C495.809 85.2614 493.957 84.7955 491.843 84.7955C489.639 84.7955 487.684 85.3068 485.98 86.3295C484.298 87.3295 482.98 88.6818 482.025 90.3864C481.07 92.0682 480.582 93.9432 480.559 96.0114V104.568C480.559 107.159 481.036 109.398 481.991 111.284C482.968 113.17 484.343 114.625 486.116 115.648C487.889 116.67 489.991 117.182 492.423 117.182C494.036 117.182 495.514 116.955 496.855 116.5C498.195 116.045 499.343 115.364 500.298 114.455C501.252 113.545 501.98 112.432 502.48 111.114L515.911 112C515.23 115.227 513.832 118.045 511.718 120.455C509.627 122.841 506.923 124.705 503.605 126.045C500.309 127.364 496.502 128.023 492.184 128.023ZM549.818 96.7273V127H535.295V74.6364H549.136V83.875H549.75C550.909 80.8295 552.852 78.4205 555.58 76.6477C558.307 74.8523 561.614 73.9545 565.5 73.9545C569.136 73.9545 572.307 74.75 575.011 76.3409C577.716 77.9318 579.818 80.2045 581.318 83.1591C582.818 86.0909 583.568 89.5909 583.568 93.6591V127H569.045V96.25C569.068 93.0455 568.25 90.5455 566.591 88.75C564.932 86.9318 562.648 86.0227 559.739 86.0227C557.784 86.0227 556.057 86.4432 554.557 87.2841C553.08 88.125 551.92 89.3523 551.08 90.9659C550.261 92.5568 549.841 94.4773 549.818 96.7273ZM632.466 74.6364V85.5455H600.932V74.6364H632.466ZM608.091 62.0909H622.614V110.909C622.614 112.25 622.819 113.295 623.228 114.045C623.637 114.773 624.205 115.284 624.932 115.58C625.682 115.875 626.546 116.023 627.523 116.023C628.205 116.023 628.887 115.966 629.569 115.852C630.251 115.716 630.773 115.614 631.137 115.545L633.421 126.352C632.694 126.58 631.671 126.841 630.353 127.136C629.035 127.455 627.432 127.648 625.546 127.716C622.046 127.852 618.978 127.386 616.341 126.318C613.728 125.25 611.694 123.591 610.239 121.341C608.785 119.091 608.069 116.25 608.091 112.818V62.0909Z" fill="#FF0000"></path><path d="M31.4824 14.4211C31.6097 14.9725 31.4824 15.2694 31.1007 15.2694C30.7614 15.2694 30.5069 14.8876 30.5069 14.4211C30.5069 13.9545 30.6766 13.5728 30.8886 13.5728C31.1007 13.5728 31.3552 13.9545 31.4824 14.4211ZM66.5595 14.8877C69.3165 15.3118 73.4731 17.3053 75.3394 19.0443C77.5025 21.0802 80.8109 27.2304 81.6592 30.7508C81.7864 31.4294 82.253 32.3626 82.6347 32.7867C83.1013 33.3381 83.3982 34.8226 83.5678 37.4523L83.8223 41.3545L83.8647 38.2582C83.9496 34.8226 84.5858 34.1864 84.9251 37.1554C85.6038 43.3056 83.3558 53.9517 80.0898 59.9746C78.987 62.0105 78.5629 62.3923 76.5694 63.1557C73.3459 64.3433 68.4682 64.9371 61.8939 64.8947C53.2837 64.8099 53.2837 64.8523 50.5691 61.544C47.6849 58.0659 45.2248 53.0186 44.2493 48.565C43.2738 44.3235 43.2738 38.3006 44.2069 36.8585C44.5462 36.3071 45.3945 33.8471 45.9883 31.387C48.1091 23.2434 50.4843 19.8078 55.8286 17.1781C57.4827 16.3722 59.1369 15.6935 59.4762 15.6935C59.8155 15.6935 60.6638 15.3967 61.3001 15.0573C62.7422 14.2939 62.9967 14.2939 66.5595 14.8877ZM30.5917 18.8746C30.8462 20.0199 30.5917 20.4864 30.0403 20.1047C29.5314 19.8078 29.5314 17.8143 30.0403 17.8143C30.2524 17.8143 30.5069 18.2808 30.5917 18.8746ZM33.1366 20.8681C33.179 21.462 33.3487 22.1406 33.4759 22.4799C33.5184 22.6071 33.6032 23.201 33.688 23.8372C33.8577 25.1521 32.8397 25.7458 32.2459 24.6855C31.8642 24.0493 31.8218 24.0493 31.7793 24.8551C31.7793 25.3641 31.4824 25.9155 31.1007 26.0428C30.21 26.3821 30.2948 26.5093 29.5314 23.6251L28.9376 21.1226L30.0828 21.2923C30.6766 21.3771 31.44 21.2075 31.7369 20.9106C32.3732 20.2319 33.0518 20.1895 33.1366 20.8681ZM34.5363 27.188C34.197 27.6969 32.6276 27.6969 32.6276 27.188C32.6276 26.7638 33.9001 26.3397 34.4515 26.5942C34.6211 26.7214 34.6636 26.9759 34.5363 27.188ZM32.2459 29.3511C32.2883 29.648 32.2883 30.157 32.2459 30.4539C32.2035 30.7932 32.3732 31.3022 32.6701 31.6415C33.0518 32.1081 33.0094 32.2777 32.458 32.4898C31.9914 32.6595 31.5249 32.4474 31.1431 31.9808C30.4221 31.0053 30.3372 30.3691 30.9735 30.7932C31.228 30.9205 31.3976 30.7508 31.3552 30.2842C31.228 29.139 31.3128 28.8421 31.7793 28.8421C32.0338 28.8421 32.2459 29.0966 32.2459 29.3511ZM89.6756 32.5322C105.072 38.5975 117.881 50.813 124.498 65.7854C130.945 80.3762 131.666 96.5362 126.534 112.06C125.94 113.884 125.304 115.453 125.134 115.58C124.795 115.75 121.953 110.363 119.79 105.443C118.942 103.45 118.772 102.644 119.111 101.753C119.451 100.82 119.324 100.311 118.433 99.0387C117.415 97.5117 116.991 96.2393 114.064 85.4659C113.301 82.6665 112.155 79.1461 111.519 77.6192C110.883 76.0922 110.12 74.1836 109.865 73.3353C109.611 72.487 108.847 71.3418 108.211 70.748C106.642 69.3059 102.909 67.1003 101.467 66.761C100.788 66.6337 97.3951 65.1068 93.8322 63.3678C90.3118 61.6288 87.2155 60.2291 86.961 60.2291C86.7065 60.2291 85.5613 59.6777 84.4586 58.9567L82.3802 57.6842L83.5254 54.4183C85.2644 49.4982 86.1976 43.5601 85.9855 38.852C85.8158 34.9075 85.8158 34.8226 84.2465 33.2533C81.1078 30.0298 82.762 29.8177 89.6756 32.5322ZM44.2917 33.8047C44.1645 34.6954 43.7403 35.883 43.3586 36.4344C42.5951 37.622 42.2134 37.2403 41.7468 34.7378C41.4923 33.2957 41.5348 33.126 42.68 32.7443C44.5038 32.0657 44.631 32.1081 44.2917 33.8047ZM29.8283 34.865C29.1072 37.2827 28.3862 38.5975 27.7924 38.5975C26.9441 38.5975 26.9441 39.5307 27.7924 43.1359C29.5314 50.4737 30.2948 55.0545 29.7859 54.8424C29.4889 54.7152 28.98 53.1882 28.5558 51.4068C28.1741 49.583 27.4955 46.7412 27.0713 45.0022C26.6472 43.2632 26.2654 41.4393 26.2654 40.9728C26.2654 39.5307 27.8772 34.653 28.471 34.3136C29.5314 33.635 30.1676 33.8895 29.8283 34.865ZM32.3732 37.4948C32.2459 38.0462 32.6701 42.1604 33.2639 46.6139C33.9001 51.1099 34.3667 54.8 34.2818 54.8848C34.197 54.9697 33.7304 55.1393 33.2639 55.2242C32.5004 55.3514 32.3732 54.9697 31.8642 51.1523C31.3976 47.5047 31.3976 46.9109 31.949 46.2746C32.5004 45.6808 32.5428 45.0022 32.1187 41.7362C31.6945 38.2582 31.7793 36.4768 32.4156 36.4768C32.5428 36.4768 32.5428 36.9434 32.3732 37.4948ZM29.1496 41.6514C29.701 44.578 29.2345 45.3415 28.5134 42.627C27.8772 40.1245 27.8348 39.4458 28.3437 39.4458C28.5134 39.4458 28.8951 40.4638 29.1496 41.6514ZM27.241 50.3465C28.1741 54.9273 28.1741 55.1393 27.453 55.1393C26.223 55.1393 23.6357 56.3694 22.9995 57.2177C22.4057 58.1084 18.7156 59.1687 16.8069 59.0415C16.1283 58.9567 15.0679 59.3808 14.262 59.9746C12.6927 61.1622 10.9961 61.756 10.9961 61.1198C10.9961 59.8898 17.528 51.1523 21.3029 47.335L25.5444 43.0511L25.9261 44.3235C26.1382 45.0022 26.732 47.7592 27.241 50.3465ZM31.1007 56.8783C32.5852 58.6173 32.5428 59.3808 30.9311 59.3808C30.21 59.3808 29.701 59.5929 29.7859 59.8474C29.8283 60.1019 29.3193 60.526 28.6407 60.7805C27.5379 61.1622 27.2834 61.0774 26.6047 60.1867C26.1806 59.6353 25.4595 58.7446 25.0354 58.1932C24.2295 57.2601 24.2295 57.2601 25.1202 56.7511C26.0958 56.2421 28.1317 55.6907 29.3193 55.6059C29.701 55.5635 30.5069 56.1573 31.1007 56.8783ZM49.8056 63.9192C47.6849 65.1068 46.6245 63.6223 46.6245 59.4656V58.066L48.6604 60.7381C50.6539 63.3678 50.6964 63.4102 49.8056 63.9192ZM26.0109 60.8229C26.8592 62.0954 27.6651 63.792 27.7924 64.5554C27.962 65.3189 28.3437 66.2944 28.6831 66.6762C29.4465 67.5245 29.1072 68.2031 27.6227 68.7545C26.8592 69.0514 26.223 69.0514 25.5444 68.6697C24.2295 67.991 24.0599 67.2275 24.7809 65.4885C25.4171 63.9192 24.9081 63.4526 24.1447 64.9371C23.466 66.1248 23.1691 65.7006 23.6781 64.3009C24.1871 63.0285 23.8478 62.8588 23.0419 63.9192C22.5329 64.6402 22.4905 64.5978 22.4481 63.7495C22.4481 62.7316 21.6846 60.4412 21.4301 60.6957C21.3453 60.7805 21.4725 61.9257 21.6846 63.1982C22.1512 65.5734 23.2116 67.5669 24.6961 68.7545C25.502 69.3907 25.502 69.4331 24.3568 70.3238C22.7026 71.6387 22.4481 71.5115 22.7026 69.4331C22.9571 67.6093 22.9571 67.5669 19.7335 64.2585C17.9521 62.4347 16.51 60.8229 16.51 60.6533C16.51 60.4412 22.6177 58.787 24.2295 58.5749C24.3568 58.5325 25.1626 59.5505 26.0109 60.8229ZM83.2709 60.3563C83.1861 60.6533 83.4406 61.2895 83.9072 61.7985C84.6706 62.6043 84.713 62.9437 84.2889 65.6582L83.8647 68.6272L81.4471 69.3907C80.1322 69.8573 78.8598 70.1542 78.6053 70.1542C78.3508 70.1118 78.1387 70.3662 78.1387 70.6632C78.1387 71.4266 78.9446 71.4266 80.8533 70.6207C81.7016 70.2814 82.4651 70.0693 82.5499 70.1542C82.6771 70.239 82.3378 70.4511 81.8713 70.6207C80.9805 70.8752 80.5988 72.1053 81.4471 72.1053C81.6592 72.1053 81.7864 71.9356 81.6592 71.7235C81.4047 71.3418 82.6347 70.6631 82.974 71.0025C83.7799 71.8083 78.3084 73.4625 77.1632 72.7415C76.9087 72.6142 76.7391 72.6991 76.7391 72.9536C76.7391 73.2929 76.1452 73.4201 75.1273 73.2929C73.7276 73.1656 73.5155 73.2505 73.6852 73.8867C74.0245 75.2439 74.9576 75.5833 77.757 75.4136C79.5808 75.3288 80.4291 75.4136 80.2171 75.7105C80.0898 75.9226 80.3019 75.8802 80.6836 75.5409C81.0654 75.2439 81.4047 75.0743 81.4047 75.2015C81.4047 75.3288 81.5319 75.7953 81.6592 76.2195C81.8712 76.8557 81.8288 76.8557 81.4471 76.3467C81.0654 75.7953 80.9805 75.7953 80.9805 76.4316C80.9805 76.9406 80.7261 77.1102 80.2595 76.9405C79.5384 76.7285 79.5384 76.7285 80.2595 77.195C80.8533 77.5768 80.8957 77.7888 80.4716 78.5947C80.1747 79.1037 79.9202 80.461 79.9202 81.6486C79.9202 83.0907 79.7081 83.7269 79.3688 83.6421C79.0719 83.5997 78.8598 83.7693 78.8598 84.0238C78.8598 84.2359 78.6901 84.3207 78.4357 84.1935C78.2236 84.0662 78.0115 84.1511 78.0115 84.4055C78.0115 84.7025 78.3084 84.7873 78.6901 84.66C79.1991 84.448 79.2839 84.6176 79.0719 85.2963C78.9022 85.8052 78.7326 86.9504 78.6901 87.8411C78.6053 89.5377 78.2236 90.2588 77.7146 89.7498C77.5449 89.6226 77.6722 89.2408 77.9267 88.9864C78.5205 88.3925 78.6053 87.6291 78.0539 87.9684C77.8418 88.1381 77.5874 87.9684 77.4601 87.7139C77.3753 87.417 77.2905 88.3077 77.3329 89.665C77.4177 91.6585 77.248 92.3371 76.6542 92.8461C75.7211 93.652 75.6787 94.161 76.5694 94.161C76.9087 94.161 77.0784 94.373 76.9511 94.5851C76.7815 94.8396 76.4846 94.9244 76.2725 94.7972C76.0604 94.6699 75.9756 94.7972 76.1028 95.0941C76.1877 95.391 76.1452 96.3241 75.9756 97.13C75.5939 98.869 75.3394 98.9538 69.7406 98.9962C64.566 99.0387 57.1434 98.5297 51.5022 97.7662C48.9574 97.4269 46.4973 97.13 46.1156 97.13C45.6066 97.13 45.3521 96.7907 45.3521 96.1545C45.3521 95.5606 45.4793 95.391 45.6914 95.7303C45.9035 96.112 46.158 95.9848 46.5821 95.3486C47.0487 94.5851 47.0487 94.5003 46.4125 94.7548C45.7762 94.9668 45.7338 94.8396 45.9883 93.8641C46.158 93.1854 46.37 91.4888 46.4549 90.0043C46.5397 88.5198 46.7942 86.9504 47.0487 86.5687C47.2608 86.1446 47.5152 85.3387 47.6425 84.7873C47.897 83.2603 48.618 81.5638 49.0846 81.2669C49.3391 81.1396 49.4239 81.3517 49.2967 81.8182C49.1694 82.2424 49.2967 82.709 49.5087 82.8786C49.7208 83.0059 49.8481 82.2424 49.7208 81.0124C49.5936 79.443 49.7208 78.8916 50.1026 78.9765C50.4843 79.0613 50.6539 78.5523 50.6539 77.4071C50.6539 76.474 50.7812 75.4984 50.9084 75.2864C51.0781 75.0319 51.4174 74.1412 51.6719 73.2505C51.9688 72.4022 52.393 71.6811 52.605 71.6811C52.8595 71.6811 52.8595 71.3418 52.5626 70.8752C51.9688 69.73 52.0112 69.5604 52.9868 69.5604C53.4533 69.5604 53.8351 69.6876 53.8351 69.8573C53.8351 70.3238 56.8889 72.3597 57.3131 72.1901C57.4827 72.1477 57.6524 72.3173 57.6524 72.5718C57.6524 72.8263 57.3555 72.9111 56.9738 72.7839C56.592 72.6566 55.5317 72.4022 54.5985 72.2325C53.2412 72.0204 52.9019 72.1053 53.0716 72.5718C53.2837 73.1656 53.4533 73.208 55.3196 73.3353C56.0406 73.3777 56.083 73.4625 55.5316 73.8443C55.0227 74.1836 55.1075 74.226 55.871 74.0139C56.4224 73.8443 56.8041 73.9291 56.8041 74.226C56.8041 74.4805 57.0162 74.5653 57.2707 74.3957C57.61 74.1836 57.61 74.3532 57.2707 74.9895C56.8889 75.6681 56.9313 76.0074 57.4827 76.5164C58.2462 77.3223 58.331 77.3223 59.3914 76.7709C59.9428 76.474 60.1973 76.474 60.1973 76.7709C60.1973 76.983 60.5366 77.195 60.9607 77.1526C61.3849 77.1526 61.4697 77.0254 61.1728 76.8981C60.579 76.6861 60.4094 75.4984 60.9607 75.4984C61.5546 75.4984 62.7846 77.0254 62.4453 77.3223C62.318 77.4919 62.4028 77.6192 62.6573 77.6192C62.9542 77.6192 63.1663 77.3223 63.1663 76.983C63.1663 76.6436 63.4208 76.3467 63.7601 76.3467C64.0994 76.3467 64.4388 76.6436 64.6084 76.983C64.7357 77.3223 65.075 77.6192 65.3295 77.6192C65.6688 77.6192 65.6264 77.4071 65.2446 76.9405C64.7357 76.3043 64.7781 76.2619 65.5415 76.5164C66.1354 76.6861 66.6443 76.5588 67.0261 76.0498C67.4926 75.4136 67.4926 75.3712 66.9837 75.7953C66.1778 76.5164 65.7112 76.474 65.7112 75.7105C65.7112 75.3712 66.0505 75.0743 66.4323 75.0743C66.9837 75.0743 67.0261 74.9471 66.6867 74.6077C66.305 74.226 66.0081 74.3108 65.4991 74.8198C64.9477 75.3712 64.6508 75.4136 64.1843 75.0319C62.9967 74.0563 63.6329 73.8018 67.1957 73.8018C70.9706 73.8018 73.261 73.1232 74.788 71.469C75.2121 71.0025 75.7635 70.6631 75.9756 70.748C76.1877 70.7904 76.2725 70.6632 76.1452 70.4511C75.6787 69.6876 77.2904 66.761 80.0898 63.3254C82.6771 60.0594 83.7799 59.0415 83.2709 60.3563ZM19.9032 65.6158C21.9815 67.5669 22.3633 68.5848 21.7695 70.1966C21.4301 71.0873 19.1821 72.2325 18.5035 71.8508C16.6373 70.7056 12.4382 66.5489 11.802 65.1068C10.7416 62.8164 10.784 62.4347 12.1837 62.0954C12.8199 61.9257 13.7955 61.4591 14.3469 61.035C15.3224 60.2291 15.3224 60.2291 16.5524 61.9257C17.2311 62.8588 18.7156 64.513 19.9032 65.6158ZM38.2688 61.4591C40.2199 60.9077 40.644 61.035 39.2868 61.756C37.8871 62.5195 36.3601 62.3923 36.1057 61.5016C35.9784 61.035 36.0208 60.9926 36.445 61.3743C36.7843 61.6712 37.3781 61.7136 38.2688 61.4591ZM11.1657 65.743C12.4806 68.2455 12.4806 68.2879 11.5475 68.2879C11.1657 68.2879 10.2326 68.5 9.42674 68.7969C7.77256 69.3907 7.17876 69.009 8.1543 67.9486C8.57844 67.5245 8.87535 66.7186 8.87535 66.2096C8.87535 65.3189 9.55398 63.6223 9.8933 63.6223C9.97813 63.6223 10.5719 64.5554 11.1657 65.743ZM74.0245 65.9551C73.5579 66.2944 73.049 66.5913 72.8369 66.5913C72.6672 66.5913 72.4976 66.8458 72.4976 67.1003C72.4552 67.3972 71.6917 68.5 70.7586 69.518C69.3165 71.1297 68.8075 71.4266 67.0685 71.5963C65.1598 71.7659 64.9053 71.6387 62.6573 69.8149C61.3425 68.7545 60.07 67.8638 59.858 67.8638C59.6459 67.8638 59.1369 67.482 58.7128 67.0155C57.9493 66.1672 57.9493 66.1672 61.088 66.3793C62.827 66.5065 66.305 66.3793 68.8923 66.0399C75.1697 65.2341 75.0001 65.2341 74.0245 65.9551ZM91.7539 68.3727C91.4146 72.1053 91.0753 72.6567 89.2938 72.2749C88.5728 72.1053 87.2579 72.0204 86.4096 72.0204C84.1617 72.1053 84.2889 71.0873 86.6217 70.0693C87.6821 69.6028 89.209 68.3727 90.1421 67.27C91.0329 66.2096 91.8387 65.3189 91.8811 65.3189C91.966 65.3189 91.8811 66.7186 91.7539 68.3727ZM95.6137 66.0824C96.674 66.7186 99.8551 67.9486 102.146 68.5848C102.612 68.7121 102.612 68.8393 102.146 69.4755C101.594 70.1118 101.637 70.1542 102.273 69.6452C102.824 69.221 103.206 69.1786 103.842 69.5604C104.351 69.8149 104.733 70.1118 104.733 70.239C104.733 70.3662 104.563 70.3238 104.309 70.1966C104.054 70.0269 104.012 70.239 104.181 70.6632C104.351 71.1297 104.521 71.2145 104.648 70.9176C104.902 70.1118 105.793 70.3238 107.108 71.5115C108.338 72.6142 108.338 72.6142 107.278 72.3597L106.217 72.1477L107.278 72.5718C108.084 72.9111 108.72 73.9291 109.738 76.5164C111.053 79.7823 111.604 81.4789 114.912 93.4823L116.312 98.5721L114.785 99.8445C113.937 100.566 112.495 101.584 111.562 102.135C110.035 102.983 109.823 102.983 109.823 102.389C109.823 101.88 109.526 101.753 108.847 101.88C107.956 102.05 107.872 101.923 107.914 99.8021C107.914 98.0631 107.787 97.5966 107.32 97.7662C106.896 97.9359 106.811 97.6814 107.023 96.621C107.193 95.7303 107.15 95.4334 106.896 95.8151C106.642 96.1969 106.429 94.373 106.26 90.9374C105.963 84.4055 105.92 83.9814 105.496 84.2359C105.327 84.3631 105.157 84.1511 105.157 83.8117C105.157 82.7514 104.309 83.0059 104.266 84.0662C104.224 84.8297 104.181 84.8721 104.012 84.2783C103.885 83.8542 103.588 83.5997 103.333 83.6845C103.036 83.8117 102.909 84.1511 103.036 84.448C103.418 85.5508 103.079 98.6145 102.655 99.887C102.273 100.947 102.23 100.65 102.4 98.1904C102.527 96.1969 102.442 95.4334 102.188 95.8576C101.849 96.409 101.764 96.4089 101.764 95.7727C101.764 95.391 101.976 94.9244 102.188 94.7972C102.442 94.6699 102.612 94.1185 102.57 93.6096C102.527 92.7189 102.485 92.7613 102.146 93.7368C101.891 94.5003 101.806 94.2458 101.976 92.6764L102.188 90.5557L101.34 91.5737C100.873 92.1251 100.491 92.8037 100.491 93.1006C100.491 93.4399 100.279 94.2034 100.025 94.882L99.5582 96.0696L98.922 94.7972C98.0313 93.1006 96.674 91.6161 95.953 91.6161C95.5712 91.6161 95.8257 92.1675 96.6316 93.1854C97.3102 94.0761 97.9889 95.2637 98.1585 95.8576C98.4554 96.8755 97.6071 96.2393 92.6446 91.913C92.3901 91.7009 92.5598 91.7009 93.0688 91.8706C94.0019 92.2099 93.9171 92.125 92.6446 91.1919C92.1781 90.8526 91.9236 90.7678 92.1356 90.9799C92.3053 91.1495 92.0932 91.7009 91.7115 92.1675C91.2873 92.634 91.2025 92.8885 91.4994 92.7189C92.2629 92.2523 95.5288 95.0517 97.7344 98.0631C99.6855 100.735 100.661 103.916 99.6431 104.256C99.3462 104.383 99.3037 104.553 99.5158 104.722C99.7703 104.892 99.5582 106.546 98.9644 109.006C98.413 111.212 97.7344 115.496 97.4799 118.549C97.2678 121.561 96.9285 124.869 96.8437 125.887L96.6316 127.711L95.4864 126.99C93.9171 125.972 92.8567 124.615 93.0688 123.936C93.196 123.639 93.0688 123.512 92.8567 123.639C92.3053 123.979 89.4635 118.21 87.8093 113.417C86.3672 109.261 86.3248 109.091 85.8582 105.613C85.6886 104.341 85.3917 102.814 85.1796 102.305C84.9675 101.753 84.9251 101.075 85.0948 100.82C85.2644 100.566 85.3917 99.8445 85.4341 99.2507C85.6038 95.4758 85.6462 95.2213 86.0703 95.8576C86.4096 96.3241 86.452 96.2393 86.2824 95.4334C85.8158 93.3551 89.3787 84.448 90.0149 86.187C90.0997 86.4839 90.0997 85.8477 89.9725 84.7449C89.8452 83.4724 90.1421 81.182 90.7784 78.4251C91.7963 73.9715 92.6022 72.5294 94.5957 71.7235C95.444 71.3842 95.4864 71.2994 94.8078 71.2994C94.3412 71.257 93.6202 71.5963 93.1536 71.978C92.3053 72.6991 92.3053 72.6991 92.5598 71.6811C92.7295 71.0873 93.0688 69.4331 93.3657 67.9486C93.6202 66.5065 93.9595 65.3189 94.0867 65.3189C94.214 65.3189 94.935 65.6582 95.6137 66.0824ZM35.0453 68.1183C35.427 69.1362 34.3667 72.1053 33.2639 73.1232C32.7549 73.5898 30.8038 74.8198 28.9376 75.7953C25.7989 77.4919 25.4171 77.5768 22.8722 77.4071L20.1153 77.2374L21.727 77.8737C22.5753 78.2554 23.2964 78.722 23.2964 78.8916C23.2964 79.2734 22.5753 79.1461 19.267 78.213C18.1218 77.8737 15.8314 77.4071 14.262 77.195C12.6503 76.9405 10.7416 76.474 10.0205 76.0922L8.66327 75.456L9.63881 76.3043C10.1478 76.7709 11.6747 77.3647 13.032 77.5768C14.3469 77.8313 16.7221 78.3402 18.249 78.6796C19.8184 79.0189 21.4301 79.3158 21.8543 79.3158C22.3633 79.3158 22.4905 79.443 22.1512 79.6551C21.8967 79.8247 21.5574 80.461 21.3877 81.0972C21.2181 81.691 20.6667 82.6241 20.1153 83.1331C19.3094 83.8966 18.8004 84.0238 17.6976 83.8117C16.9342 83.6421 14.8134 83.3452 13.032 83.1331C7.17876 82.4545 5.82148 81.1396 6.92427 77.2374C7.306 75.9226 7.51807 74.4381 7.43324 73.9291C7.26359 73.208 7.51807 72.9111 8.53603 72.5718C9.93572 72.0628 9.97813 72.1477 11.6747 74.5229C12.2685 75.3712 12.4382 75.4136 12.9896 74.8198C13.4561 74.3532 13.7955 74.3108 14.1772 74.6501C14.8134 75.2015 22.6178 75.0743 23.7629 74.5229C24.3143 74.2684 24.5264 74.4805 24.6961 75.456C24.8657 76.1771 25.2051 76.7709 25.4595 76.7709C25.714 76.7709 25.7989 76.474 25.6716 76.0922C25.502 75.7105 25.5444 74.9895 25.6716 74.4805C25.9685 73.6322 25.9685 73.6322 26.3927 74.6501L26.8592 75.7105L27.0289 74.3532C27.241 72.1477 32.1187 67.5245 34.2394 67.4396C34.5363 67.4396 34.8756 67.7365 35.0453 68.1183ZM15.4072 71.978C15.6617 73.8443 15.1103 74.5229 14.6013 72.9111C14.3469 72.1053 14.6862 69.6876 14.9831 70.0269C15.0679 70.1118 15.2376 71.0025 15.4072 71.978ZM24.9506 71.8932C24.3992 72.4446 18.9277 73.8018 17.2735 73.8018C16.8069 73.8018 16.4252 73.3777 16.2555 72.7415C15.8738 71.2994 16.2979 70.9601 17.3583 71.8932C17.9097 72.4022 18.5459 72.5718 19.3518 72.4022C19.988 72.2325 21.4301 71.978 22.5753 71.7659C23.6781 71.5539 24.6961 71.257 24.8657 71.1297C24.993 70.9601 25.2475 70.9176 25.3747 71.0449C25.4595 71.1721 25.2899 71.5539 24.9506 71.8932ZM13.1168 72.487C14.1348 74.3957 13.032 74.8622 11.4627 73.208C10.5719 72.2325 10.5295 72.1477 11.293 71.978C12.6079 71.6387 12.6503 71.6387 13.1168 72.487ZM61.3849 73.0808C61.6394 73.2929 61.8939 73.7594 61.8939 74.1412C61.8939 74.4805 62.2332 75.1591 62.6573 75.6257C63.2087 76.3043 63.2511 76.4316 62.7422 76.2619C62.4029 76.1771 61.8939 75.6257 61.6394 75.1167C61.3849 74.6077 60.7063 73.717 60.1549 73.1232C59.2641 72.1901 59.2642 72.1053 59.9852 72.3597C60.4518 72.5294 61.088 72.8263 61.3849 73.0808ZM60.6214 75.1167C60.6214 75.5833 58.4583 76.8557 58.1614 76.5588C57.9917 76.4316 58.1614 76.0922 58.5007 75.8802C58.9672 75.5409 58.8824 75.4984 58.1189 75.7105C57.3979 75.9226 57.2282 75.8802 57.4403 75.4984C57.61 75.2015 58.1614 75.1167 58.7552 75.2439C60.0276 75.5833 60.1549 74.4805 58.9248 73.717C58.4583 73.4201 58.0765 72.996 58.0765 72.7839C58.0765 72.5718 58.6703 72.9111 59.349 73.5898C60.07 74.2684 60.6214 74.9471 60.6214 75.1167ZM5.3125 79.0189L4.20972 81.2244L4.46421 79.1885C4.59145 78.0857 5.0156 76.1771 5.39733 74.9471L6.11838 72.7415L6.24563 74.7774C6.33046 76.2619 6.11839 77.3647 5.3125 79.0189ZM91.1601 73.6746C91.3722 73.8867 89.4635 75.6681 87.9366 76.6861C87.2155 77.1526 87.3004 77.195 88.7425 77.0254C90.6511 76.7709 90.736 76.1347 87.3428 86.5263C86.0279 90.5981 84.6706 94.9668 84.3737 96.2393C83.6951 99.2083 84.0344 104.977 85.1796 108.54C85.6462 110.067 85.9855 111.381 85.8582 111.466C85.7734 111.551 85.4341 110.703 85.0948 109.6C84.7555 108.455 84.2465 107.564 83.992 107.606C83.6951 107.691 83.5254 107.055 83.5254 105.995C83.5254 104.849 83.3558 104.383 83.0589 104.595C82.762 104.765 82.6771 105.528 82.8044 106.504L83.0164 108.115L81.5743 106.97C80.7685 106.334 79.8778 105.825 79.6233 105.825C79.1143 105.825 78.3508 102.729 78.3508 100.65C78.3508 99.887 78.1812 99.8021 77.4177 100.057C76.9511 100.269 76.1028 101.032 75.5939 101.796C74.9576 102.686 74.6183 102.941 74.6183 102.474C74.6183 101.668 74.0245 101.584 73.4307 102.305C72.9641 102.898 69.1044 109.854 69.1044 110.109C69.1044 110.194 69.274 110.279 69.5285 110.279C69.7406 110.279 70.7162 108.836 71.6917 107.097C72.6672 105.316 73.5155 103.959 73.6004 104.044C73.6852 104.128 73.4731 105.019 73.1338 106.037C72.3279 108.285 72.3279 108.37 73.1338 107.734C73.4731 107.437 73.77 106.97 73.77 106.716C73.77 106.461 74.3638 105.401 75.0425 104.341C76.4422 102.262 76.6542 102.729 75.6787 105.655C75.0849 107.394 75.0849 107.734 75.7211 109.218C76.2301 110.448 76.4846 110.703 76.7815 110.236C76.9935 109.854 77.036 110.279 76.8663 111.339C76.7391 112.272 76.3997 113.163 76.1452 113.375C75.8908 113.545 74.1517 113.629 72.2855 113.587L68.8923 113.46L69.0196 112.06C69.1044 110.915 68.9771 110.703 68.1713 110.703C66.305 110.703 66.0081 110.151 66.305 107.352C66.8564 102.559 67.4078 101.838 70.5889 101.796C72.5824 101.796 73.9397 101.329 73.261 100.905C72.8793 100.65 73.1338 100.523 74.0245 100.523C75.509 100.523 77.5874 99.1235 77.5874 98.1055C77.5874 97.7238 78.266 95.5182 79.0719 93.143C79.8778 90.7678 80.9805 87.2473 81.5743 85.2538C83.1437 79.8672 85.8158 74.3957 87.3852 73.5474C88.2759 73.0384 90.5663 73.1232 91.1601 73.6746ZM81.5319 73.8018C80.0898 74.3957 74.1942 74.8198 74.1942 74.3532C74.1942 74.1412 74.8304 74.0563 75.5939 74.1412C76.3149 74.226 77.7146 74.0988 78.6477 73.8867C79.5809 73.6322 80.8109 73.4625 81.4047 73.4625C82.4226 73.4201 82.4651 73.4201 81.5319 73.8018ZM46.667 75.965C46.8366 76.983 46.8366 78.5947 46.667 79.5278C46.4125 81.0972 46.3276 81.182 44.7159 81.3517C42.1286 81.5638 41.9165 81.7758 44.2917 81.8182C47.2183 81.9031 45.9035 82.709 42.892 82.709C40.8985 82.709 40.7289 82.6241 41.0682 81.9455C41.2803 81.5638 42.0862 79.7399 42.8496 77.9161C44.7583 73.3353 46.2004 72.5718 46.667 75.965ZM41.7892 76.0498C41.8317 76.5588 41.4075 78.2978 40.7713 79.952C40.1775 81.5638 39.2444 84.6176 38.7354 86.7384C38.184 88.8167 37.7598 90.2164 37.7598 89.7922C37.7174 88.9864 37.6326 88.9439 36.6995 89.3257C36.3177 89.4529 36.0208 89.9195 36.0208 90.3012C35.9784 90.7254 35.7239 90.5133 35.3422 89.7498C34.8756 88.9439 34.7908 88.435 35.1301 88.0956C35.3846 87.8411 35.427 87.417 35.1301 86.908C34.5363 85.7204 34.1122 81.0124 34.6636 81.0124C34.8756 81.0124 35.0029 80.5882 34.8756 80.0368C34.7484 79.5278 34.7484 79.2309 34.918 79.4006C35.0877 79.5278 35.3846 80.5882 35.5967 81.7334C35.8936 83.5997 35.936 83.6421 36.0208 82.2848C36.0632 81.0548 36.1481 80.9275 36.445 81.6486C36.7843 82.412 36.8267 82.4121 36.8267 81.7334C36.8691 81.3093 36.6146 80.8851 36.2753 80.7579C35.8088 80.5882 35.7239 80.2489 36.0632 79.443C36.2753 78.8916 36.3601 78.2554 36.2329 78.0433C35.8088 77.3223 39.2868 76.8557 39.8382 77.5344C40.3047 78.1706 41.153 78.0009 41.1106 77.3223C40.941 75.8802 41.1106 74.5229 41.4075 74.8198C41.5772 74.9471 41.7468 75.4984 41.7892 76.0498ZM29.0224 78.934C28.2165 80.2065 27.3258 81.9031 27.1137 82.709C26.6047 84.448 23.7205 89.156 23.7205 88.2229C23.7205 87.8836 24.484 85.3811 25.3747 82.709C26.9865 78.0433 27.1137 77.7888 28.6831 77.1102C29.5738 76.7285 30.3372 76.474 30.4221 76.5164C30.4645 76.6012 29.8707 77.704 29.0224 78.934ZM33.4759 82.6665C33.4759 83.8117 33.6032 85.3387 33.7304 86.0597C33.9425 87.0353 33.8577 87.3746 33.3911 87.3746C32.967 87.3746 32.7973 87.8412 32.8821 89.0288C32.9245 89.9619 33.0942 90.9374 33.2639 91.2343C33.4759 91.5737 33.4335 91.6585 33.1366 91.4464C32.8397 91.2767 32.6276 90.8526 32.6276 90.5133C32.6276 90.174 32.458 89.9195 32.2459 89.9195C32.0338 89.9195 31.7793 89.6226 31.6521 89.3257C31.4824 88.9015 31.6097 88.7743 32.0338 88.9439C32.3307 89.0712 32.6276 88.9439 32.6276 88.7319C32.6276 88.4774 32.1611 88.3501 31.6097 88.4774C31.0159 88.5622 30.4221 88.4774 30.2948 88.2229C30.1676 88.0108 30.1676 87.7987 30.3797 87.7987C30.5493 87.7987 31.1855 87.417 31.7793 86.9504C32.3732 86.4839 32.5428 86.187 32.1611 86.3142C31.5673 86.5263 31.4824 86.2718 31.6097 84.4055C31.9066 80.5034 33.4759 79.0189 33.4759 82.6665ZM44.9279 86.5687C44.0372 90.3012 43.7403 97.2997 44.4614 97.7662C45.1824 98.1904 58.1189 99.6749 61.9787 99.8021C65.3295 99.887 65.7112 99.9718 65.8809 100.778C66.1354 101.711 65.075 108.921 64.6508 109.345C64.5236 109.473 62.8694 109.133 60.9183 108.582C58.331 107.819 56.8041 107.606 54.8954 107.734C53.4957 107.861 49.8056 107.946 46.667 107.946H40.941L40.644 106.758C40.432 105.952 40.5168 105.401 41.0258 104.934C41.8741 104.086 42.2982 104.892 41.5348 105.825C40.9409 106.504 41.1106 106.589 42.1286 106.207C42.5527 106.037 42.8072 105.443 42.8072 104.553C42.8072 103.747 43.0193 102.602 43.2313 102.008C43.6131 101.032 43.5707 100.905 43.0193 101.117C42.5103 101.287 42.3831 101.032 42.3831 99.9294C42.3831 98.36 41.4075 97.639 40.3896 98.4449C40.0502 98.7418 39.6685 98.7842 39.414 98.5721C38.905 98.0631 38.3961 91.6161 38.8202 91.6161C39.0323 91.6161 39.2868 90.4709 39.3292 89.0712C39.414 87.6715 39.7109 85.8052 40.0078 84.9145C40.5592 83.3876 40.6016 83.3452 43.0617 83.1331C44.419 83.0059 45.6066 82.921 45.6914 82.9634C45.7338 83.0059 45.3945 84.6176 44.9279 86.5687ZM8.49362 90.2164L10.5719 90.9799V93.9489C10.6144 98.869 11.5051 104.086 13.6682 111.763C15.1527 117.15 15.9586 118.125 19.1397 118.549C20.2849 118.719 21.2605 118.974 21.3453 119.143C21.4725 119.313 20.8363 120.501 19.9456 121.773C18.8852 123.342 18.0369 124.106 17.3159 124.191C15.9162 124.36 16.001 126.057 17.5704 128.432C18.4611 129.789 18.9701 130.171 19.5215 130.001C20.1577 129.789 20.3273 129.959 20.3273 130.723C20.3273 131.698 20.4546 131.74 22.5753 131.656C25.3747 131.528 25.2899 131.528 24.7385 131.147C24.2295 130.807 24.484 126.82 25.0354 126.82C25.2475 126.82 25.4171 127.372 25.4171 128.05C25.4171 129.153 25.5444 129.323 26.6896 129.28C28.2165 129.238 28.471 128.899 29.192 126.481C29.7434 124.53 29.4889 123.639 28.5558 124.021C28.2165 124.148 27.962 124.063 27.962 123.809C27.962 123.554 27.6651 123.47 27.2834 123.597C26.9016 123.767 26.3078 123.639 25.9261 123.342C25.4171 122.918 25.2475 122.918 25.1202 123.3C24.8233 124.106 24.2719 123.979 24.0174 123.045C23.8478 122.324 24.0599 122.197 25.2899 122.07L26.7744 121.943L25.6292 120.288C25.0354 119.398 24.5688 118.634 24.6537 118.592C24.7385 118.549 26.1806 117.616 27.8772 116.471C30.8462 114.478 35.7663 109.6 37.2084 107.182C37.5902 106.546 38.0143 106.037 38.1416 106.037C38.2688 106.037 38.3961 109.982 38.4385 114.859C38.4809 119.695 38.693 124.403 38.8626 125.336C39.0747 126.269 39.0747 130.171 38.905 134.031C38.4809 142.302 38.7354 147.052 39.7109 148.113C40.6016 149.088 40.1775 149.088 38.0143 147.985C31.8218 144.889 25.9685 140.478 20.7091 135.049C12.7775 126.736 7.43324 116.938 4.76111 105.613C3.95523 102.093 3.65833 99.5901 3.48867 93.5247L3.27659 85.8901L4.80353 87.6715C5.8639 88.8591 7.09393 89.7498 8.49362 90.2164ZM30.719 90.1316C31.5249 90.9799 32.2035 91.8706 32.2035 92.1675C32.2035 92.5068 32.0338 92.422 31.7793 92.0402C31.5249 91.6161 31.3552 91.5737 31.3552 91.913C31.3552 92.2099 31.0159 92.8037 30.5917 93.2278C29.7859 94.0337 29.1072 93.8641 26.9016 92.125C26.1806 91.5737 25.8837 91.2343 26.1806 91.404C26.4351 91.5312 26.6896 91.4888 26.6896 91.2343C26.6896 90.9799 26.9865 90.895 27.3258 91.0223C27.6651 91.1919 27.8348 91.4464 27.7075 91.7009C27.5803 91.913 27.7075 92.0826 28.0044 91.9978C29.192 91.8706 29.6162 92.0402 29.4041 92.6764C28.98 93.6944 29.9131 93.3975 30.3797 92.3371C30.719 91.6161 30.6766 91.1495 30.2948 90.6405C29.8283 89.9619 29.7434 89.9619 29.489 90.5557C29.3617 90.9374 29.4041 91.1071 29.6162 90.9799C29.8283 90.8526 30.1252 90.9374 30.2524 91.1495C30.4221 91.3616 30.3372 91.6585 30.1252 91.7857C29.6162 92.125 28.3862 90.4285 28.3862 89.4105C28.3862 88.2653 29.0224 88.4774 30.719 90.1316ZM13.3713 91.4464C14.2196 91.8281 15.6617 92.0402 16.51 91.9554C17.4007 91.8706 18.2914 92.0402 18.5459 92.3371C18.8004 92.5916 19.2246 94.1185 19.4791 95.6879C19.7335 97.2572 20.1153 98.869 20.3273 99.2507C20.5394 99.6749 21.1332 101.711 21.5998 103.747C22.0664 105.825 22.745 108.582 23.0843 109.854C23.4236 111.127 23.6357 112.442 23.5085 112.781C23.2964 113.29 23.4236 113.29 24.0174 112.739C24.4416 112.399 24.993 112.145 25.2051 112.23C25.502 112.357 25.6292 111.466 25.5444 109.77C25.502 108.285 25.3747 105.231 25.2899 102.983C25.1626 98.869 25.1626 98.8266 26.0534 99.4628C27.6227 100.65 31.0159 102.135 33.7304 102.898C37.5053 103.916 37.3781 105.274 33.2639 107.564C30.9311 108.836 30.3372 109.515 28.98 112.399C27.8772 114.69 26.6472 115.877 24.2295 116.768C22.1512 117.574 19.7335 117.701 17.8673 117.023C16.3404 116.514 15.4921 114.52 13.5834 106.885C12.2685 101.626 10.9113 90.7678 11.5899 90.7678C11.6747 90.7678 12.4806 91.0647 13.3713 91.4464ZM29.3193 94.7123C30.6766 95.1789 30.8038 95.3062 30.1252 95.7303C29.5314 96.112 29.1072 96.0272 28.1317 95.1789C26.732 94.0761 27.0713 93.9489 29.3193 94.7123ZM27.3682 97.5541C28.2589 97.5541 29.7859 98.4024 28.9376 98.4024C28.6407 98.4024 28.3862 98.6145 28.3862 98.869C28.3862 99.0811 28.5982 99.1659 28.8103 99.0387C29.0648 98.9114 29.2345 98.9963 29.2345 99.2083C29.2345 99.8021 29.1072 99.8021 27.7924 99.2083C27.1985 98.9114 26.8168 98.5721 26.9016 98.4024C27.0289 98.2328 26.7744 98.1055 26.3503 98.1479C25.9685 98.1479 25.6716 97.9359 25.7564 97.639C25.7989 97.3845 25.6292 97.13 25.3747 97.13C25.1626 97.13 25.0778 96.9179 25.2475 96.621C25.4595 96.2817 25.714 96.3665 26.0534 96.8331C26.3503 97.2572 26.9441 97.5541 27.3682 97.5541ZM41.1106 101.584C40.941 102.644 40.7289 103.577 40.6016 103.704C40.3047 104.001 40.2199 100.523 40.5168 100.057C41.0682 99.1235 41.3651 99.8445 41.1106 101.584ZM118.094 100.566C118.73 101.584 113.47 105.528 112.113 105.019C111.774 104.892 111.604 104.934 111.731 105.189C111.901 105.443 111.307 105.613 110.289 105.613C108.211 105.613 108.041 105.062 109.95 104.341C112.876 103.195 115.718 101.711 116.439 100.905C117.245 99.9718 117.712 99.887 118.094 100.566ZM104.394 112.696C105.708 115.453 107.023 118.465 107.278 119.398C108.253 122.494 111.604 130.341 112.664 132.037L113.725 133.734L111.01 136.491C108.593 138.993 101.34 144.762 101.043 144.465C100.958 144.38 101.212 143.659 101.552 142.811C102.739 139.927 102.061 134.667 99.7279 129.365C98.9644 127.541 98.922 127.117 99.431 119.398C99.8127 113.29 100.152 110.915 100.746 109.558C101.212 108.54 101.679 107.734 101.806 107.734C101.933 107.734 103.121 109.982 104.394 112.696ZM41.3651 110.151C40.8985 110.618 40.5592 109.897 40.8985 109.133C41.2379 108.412 41.2379 108.412 41.4075 109.133C41.5348 109.558 41.4923 110.024 41.3651 110.151ZM48.2363 109.388C48.9149 109.43 49.1694 109.685 49.1694 110.363C49.127 111.254 49.0846 111.254 48.7029 110.576C48.4484 110.151 47.7697 109.854 47.0487 109.854C45.9883 109.854 45.7762 110.024 45.7762 110.788C45.8187 111.721 45.8187 111.763 46.4125 110.957C47.0487 110.109 47.0487 110.109 47.0487 110.957C47.0487 111.551 47.1759 111.593 47.4304 111.212C47.6849 110.745 47.8546 110.745 48.1939 111.212C49.127 112.399 50.0177 114.52 50.0177 115.665C50.0177 116.302 50.3146 117.235 50.6539 117.659C51.2902 118.507 51.2902 118.507 51.2902 117.659C51.2902 116.768 50.357 113.163 49.8056 111.848C49.5512 111.297 49.7208 111.127 50.4419 111.127C51.2902 111.127 51.3326 111.042 50.8236 110.406C50.2722 109.77 50.4419 109.727 52.5626 109.982C53.8351 110.109 56.592 110.363 58.7128 110.533C61.6818 110.788 62.2756 110.915 61.4697 111.212C60.8759 111.424 59.349 111.509 58.0765 111.339C56.083 111.127 55.871 111.169 56.592 111.636C57.5676 112.272 63.7601 112.357 66.4323 111.806L68.1713 111.466L67.9592 113.29C67.7047 114.902 66.5595 117.065 66.5595 115.835C66.5595 115.58 66.3898 115.368 66.1354 115.368C65.9233 115.368 65.7112 115.75 65.7112 116.259C65.7112 116.726 65.9233 116.98 66.1354 116.853C66.814 116.429 66.6443 117.15 65.8384 118.083C65.075 118.931 65.075 118.931 66.305 118.168C66.9837 117.744 67.3654 117.616 67.2381 117.871C67.0685 118.125 66.0929 118.846 65.0326 119.44C63.2087 120.501 62.8694 120.585 59.4338 120.331C57.3979 120.161 54.3016 119.78 52.5626 119.44C50.8236 119.101 48.3211 118.719 47.0487 118.549C43.7403 118.168 43.3586 117.574 43.4858 113.078C43.5283 111.084 43.4858 109.43 43.401 109.43C43.2738 109.43 43.0193 109.854 42.8072 110.363C42.4255 111.339 42.4255 111.339 42.4255 110.236C42.3831 109.642 42.4679 109.049 42.5951 108.921C42.7224 108.836 43.7827 108.879 45.0128 109.049C46.2428 109.218 47.6849 109.388 48.2363 109.388ZM79.5808 111.509C79.7929 113.12 79.7505 113.248 78.8598 113.248C78.0115 113.248 77.9267 113.078 78.1812 111.933C78.3084 111.212 78.4357 110.194 78.4357 109.727C78.4357 108.2 79.3264 109.6 79.5808 111.509ZM85.3917 112.357C85.8582 112.866 85.9855 113.248 85.6886 113.46C85.4341 113.587 85.222 113.502 85.222 113.29C85.222 113.036 85.0524 112.823 84.7979 112.823C84.5858 112.823 84.3737 113.163 84.3737 113.545C84.3737 114.054 84.2465 114.138 83.9072 113.799C83.4406 113.332 83.7799 111.551 84.3313 111.551C84.501 111.551 85.0099 111.933 85.3917 112.357ZM43.1889 115.368C43.1889 115.835 43.0617 115.793 42.5951 115.199C42.2558 114.732 41.9589 113.969 41.9589 113.502C42.0013 112.696 42.0437 112.696 42.5951 113.672C42.9344 114.266 43.1889 115.029 43.1889 115.368ZM41.1106 117.023C40.8985 117.489 40.6865 118.253 40.6865 118.762C40.6865 119.695 40.6865 119.695 41.5348 118.719C42.3406 117.701 42.3406 117.701 42.3831 128.559C42.3831 136.406 42.5103 139.502 42.892 139.884C43.2738 140.266 43.2738 140.52 42.892 140.902C42.2982 141.496 42.2134 143.362 42.7648 143.362C42.9769 143.362 43.2313 142.98 43.3586 142.514C43.6555 141.369 44.1221 141.453 45.0976 142.811C45.5642 143.405 45.6914 143.786 45.4369 143.617C44.8855 143.277 43.91 144.889 44.3341 145.525C44.5038 145.78 44.8431 145.61 45.2248 145.059C45.8611 144.168 45.8611 144.168 46.7942 144.974C47.2608 145.398 49.2967 146.374 51.2902 147.137C54.9378 148.537 56.1679 149.215 54.344 148.749C53.3685 148.537 53.3261 148.622 53.4957 150.403C53.623 152.057 53.5382 152.269 52.7323 152.269C52.2657 152.269 51.5022 151.93 51.1205 151.463C50.4419 150.7 50.4419 150.615 51.4598 149.809C52.8171 148.749 52.8595 148.282 51.5447 148.622C50.7812 148.791 50.4843 148.664 50.3146 147.985C50.145 147.392 49.8905 147.222 49.5512 147.434C49.2543 147.604 48.4908 147.773 47.8122 147.773C46.7518 147.816 46.5821 147.688 46.7518 146.84C47.0063 145.44 46.2004 145.695 45.649 147.179C45.2248 148.24 44.9704 148.452 44.2069 148.24C43.4858 148.07 43.3162 148.155 43.4858 148.664C43.8252 149.47 43.5283 149.47 41.9589 148.664C41.1106 148.24 40.6016 147.519 40.3047 146.416C39.7533 144.465 39.7109 137.551 40.2623 129.153C40.5592 124.615 40.5592 121.688 40.1775 118.889C39.7957 115.665 39.7957 114.859 40.3047 114.266C40.8137 113.629 40.8985 113.714 41.2379 114.902C41.4075 115.708 41.3651 116.556 41.1106 117.023ZM77.036 115.793C77.0784 116.768 76.9511 117.404 76.6966 117.277C76.1028 116.895 76.2301 118.083 76.9087 119.016C77.5025 119.78 77.5449 119.78 77.8418 119.058C77.9691 118.634 78.0115 117.362 77.8418 116.217C77.5874 114.478 77.6722 114.096 78.2236 114.096C78.775 114.096 78.8598 114.902 78.8598 119.398C78.8598 125.124 78.8598 125.124 76.527 123.554C75.509 122.876 73.261 122.833 72.5824 123.512C72.2855 123.809 72.0734 124.36 72.0734 124.784C72.0734 125.209 71.6917 125.93 71.2251 126.396C70.0799 127.541 70.1648 127.711 71.5645 127.457C72.54 127.245 72.5824 127.287 71.9462 127.669C71.5645 127.923 70.801 128.008 70.3344 127.881C69.6982 127.669 69.5285 127.711 69.6982 128.05C70.0799 128.644 71.7341 128.644 73.0914 128.05C73.8549 127.669 74.4911 127.669 75.509 128.05C76.527 128.39 76.9935 128.39 77.4601 128.008C78.6053 127.075 78.987 128.22 78.4781 131.401C78.2236 133.055 78.0115 136.533 78.0115 139.121C78.0115 143.532 77.9267 144.041 76.8663 145.949C75.9756 147.476 75.4242 148.028 74.7031 148.028C73.8549 148.028 73.77 147.901 74.0245 146.331C74.279 144.677 73.7276 143.914 73.1762 145.271C72.8793 146.077 71.9038 145.695 69.9527 144.126C69.1468 143.447 67.9592 142.938 67.323 142.938C66.305 142.938 66.1354 143.108 66.1354 144.083C66.1778 144.762 66.4323 145.737 66.7716 146.331C67.1109 146.925 67.3654 147.561 67.4078 147.773C67.4078 147.985 64.9053 148.028 61.4273 147.901C55.9134 147.646 55.1499 147.519 51.5871 146.077C49.4239 145.228 47.4304 144.253 47.1759 143.871C46.879 143.489 46.6245 142.429 46.6245 141.496C46.5821 139.927 46.5397 139.842 46.0307 140.52C45.4793 141.241 45.3945 141.199 44.3766 140.011C43.3162 138.739 43.3162 138.612 43.5283 133.522C43.7403 129.196 43.91 128.093 44.631 127.075C45.4369 125.93 45.5217 125.887 45.8187 126.651C46.1156 127.372 46.158 127.372 46.158 126.693C46.2004 126.142 46.4549 126.015 47.2183 126.227C48.406 126.523 51.4598 125.081 51.884 124.063C52.0112 123.682 52.1809 122.833 52.1809 122.24C52.2233 121.519 52.3081 121.349 52.4354 121.815C52.6474 122.621 53.4109 122.876 53.4109 122.155C53.4109 121.603 54.8106 121.603 55.4044 122.197C55.7437 122.536 56.1255 122.536 56.7193 122.197C57.1858 121.943 58.7552 121.731 60.1973 121.731H62.827L62.0635 122.876C61.6394 123.554 60.8759 124.403 60.3669 124.784C59.858 125.209 59.0521 126.608 58.5007 127.966C57.9917 129.323 57.3131 131.062 56.9738 131.783C56.083 133.904 57.2282 133.607 58.5007 131.401C59.0945 130.426 60.1973 129.026 60.9607 128.262C61.6818 127.499 62.318 126.481 62.318 125.972C62.318 124.954 63.5905 122.579 64.0994 122.579C64.3115 122.579 64.6508 123.045 64.8629 123.597C65.075 124.233 65.7112 124.742 66.5171 124.912C67.2381 125.081 67.9592 125.378 68.0864 125.633C68.2985 125.93 68.0016 126.015 67.2381 125.802C66.2626 125.548 66.0929 125.633 66.2202 126.227C66.4747 127.499 68.1289 127.754 69.3589 126.693C70.801 125.463 70.4617 124.021 68.6802 123.639C66.9837 123.258 66.4323 122.452 66.7292 120.713C67.1109 118.634 67.9168 118.125 68.9347 119.228C69.7406 120.119 69.7406 120.119 68.3409 121.264C67.6199 121.9 67.0685 122.536 67.1957 122.664C67.535 123.003 70.7162 121.985 72.7945 120.925C74.6607 119.992 75.0425 119.398 75.0425 117.362C75 116.217 74.9576 116.132 74.5759 116.726C73.8124 118.083 72.6248 117.659 72.4128 116.005C72.2431 114.605 72.2855 114.562 73.9821 114.393C74.9152 114.308 75.9756 114.223 76.3149 114.181C76.8239 114.096 76.9935 114.562 77.036 115.793ZM86.7065 114.775C87.979 115.623 88.1062 116.217 86.9186 115.92C86.0279 115.708 85.9855 115.835 85.8582 118.719C85.8582 119.483 85.5613 119.78 84.8827 119.822C83.6103 119.907 82.5923 120.882 83.7799 120.882C86.0279 120.882 87.8093 120.331 87.5548 119.737C87.4276 119.398 87.2155 118.592 87.0883 117.998C86.9186 117.15 86.961 117.023 87.3004 117.489C87.5124 117.828 87.8517 117.956 88.0214 117.828C88.2335 117.574 91.1601 123.003 91.1601 123.682C91.1601 123.809 90.5663 123.215 89.8452 122.367C89.1242 121.561 88.3183 120.882 88.0214 120.882C87.7669 120.882 87.8942 121.094 88.3183 121.349C89.209 121.858 90.3966 124.488 90.439 125.972C90.439 126.566 90.227 127.457 89.9725 127.966C89.6756 128.475 89.4635 129.323 89.4635 129.832C89.4635 131.274 86.1976 135.261 84.9675 135.303C84.713 135.303 84.0768 134.837 83.5254 134.243C82.974 133.649 82.2954 133.183 81.9985 133.183C81.7016 133.183 80.9805 132.971 80.3867 132.716C79.5384 132.334 79.3688 131.995 79.5384 131.104C79.6657 130.51 79.9202 127.499 80.0474 124.488C80.3443 119.228 80.3867 118.974 81.2774 118.846C82.1682 118.719 82.1682 118.677 81.4471 117.956C80.8957 117.404 80.7261 116.768 80.8957 116.005L81.1078 114.859L81.6592 116.174C81.9985 116.938 82.4226 117.447 82.6347 117.319C82.8468 117.192 83.1013 117.362 83.2709 117.701C83.3982 118.041 83.7799 118.337 84.1192 118.337C84.7555 118.337 85.222 117.107 85.222 115.241C85.222 113.884 85.3493 113.884 86.7065 114.775ZM71.5645 115.665C71.4372 116.895 70.3768 117.574 70.3768 116.429C70.3768 115.793 70.292 115.75 69.6558 116.259C69.0196 116.768 68.9771 116.768 69.2316 116.089C69.4013 115.665 69.5285 115.114 69.5285 114.902C69.5285 114.69 70.0375 114.52 70.6313 114.52C71.5644 114.52 71.6917 114.69 71.5645 115.665ZM48.618 119.949C48.2363 120.034 47.897 120.289 47.897 120.501C47.897 121.137 50.0177 121.434 51.2053 120.925L52.3505 120.416L51.2053 121.476C50.5691 122.07 49.8905 122.833 49.7208 123.173C49.5512 123.47 48.9149 123.894 48.406 124.063C47.4728 124.318 47.4304 124.275 47.6849 123.342C47.8546 122.833 48.1091 122.07 48.1939 121.731C48.3211 121.391 47.897 121.646 47.3032 122.367C46.37 123.427 46.2004 123.512 45.9459 122.876C45.8187 122.494 45.2248 122.155 44.6735 122.155C43.7827 122.155 43.6555 121.943 43.6555 120.543V118.974L46.4973 119.398C48.0666 119.61 49.0422 119.864 48.618 119.949ZM98.2858 129.874C99.1765 130.765 98.8796 131.571 97.9465 130.765C97.0558 130.001 96.8437 129.365 97.4375 129.365C97.6072 129.365 97.9889 129.577 98.2858 129.874ZM91.5843 132.674C92.0932 134.879 91.7539 136.406 90.5239 137.424C90.1421 137.721 89.5483 138.569 89.1666 139.29C88.5304 140.478 88.488 140.52 87.9366 139.757C87.5973 139.333 87.3428 138.569 87.3428 138.103C87.3428 137 90.3966 130.214 90.7784 130.468C90.948 130.553 91.2873 131.571 91.5843 132.674ZM81.1502 136.83C81.9561 137.127 82.0833 138.272 81.3199 138.272C80.6836 138.23 79.284 137.254 79.284 136.83C79.284 136.491 80.3019 136.491 81.1502 136.83ZM86.0703 139.418C86.0703 140.86 84.9675 142.09 83.6527 142.09C82.5499 142.09 82.4651 142.429 84.5858 138.909C85.3917 137.636 86.0703 137.891 86.0703 139.418ZM83.3134 144.635C84.8403 144.635 85.0099 144.762 85.0524 145.695C85.1372 146.586 84.9251 146.755 83.5678 146.967C80.4716 147.476 78.4781 148.155 77.757 148.919C76.9087 149.894 77.036 149.894 78.9022 149.131C79.7081 148.834 81.7016 148.325 83.3558 148.028C86.24 147.519 86.3672 147.476 86.1552 146.374L85.9855 145.271L86.749 146.331C87.8942 147.943 88.2335 148.07 90.439 147.773C92.8567 147.476 93.196 148.24 90.8632 148.834C88.3607 149.47 85.222 150.064 85.222 149.852C85.222 149.767 85.731 149.512 86.4096 149.258C87.0883 148.961 87.3428 148.706 87.0034 148.579C86.7065 148.452 85.731 148.876 84.8403 149.47C83.6103 150.318 82.762 150.573 80.8957 150.573C79.5808 150.573 78.3508 150.742 78.2236 150.997C78.0539 151.251 78.4781 151.421 79.1567 151.421C80.0898 151.421 80.3867 151.633 80.3867 152.269C80.3867 152.736 80.1322 153.118 79.8353 153.118C79.5384 153.118 79.284 152.948 79.284 152.778C79.284 152.269 76.6118 151.379 76.3573 151.803C75.8908 152.481 67.8319 150.742 65.7112 149.512C64.6932 148.961 64.8205 148.919 67.535 148.876C70.0799 148.876 70.3768 148.961 70.3768 149.724C70.3768 150.318 70.6737 150.573 71.2675 150.573C71.7765 150.573 72.2431 150.233 72.3703 149.724C72.6672 148.622 73.77 148.622 73.77 149.682C73.77 150.149 73.9821 150.658 74.1942 150.785C74.8728 151.209 75.7635 150.318 76.7815 148.282L77.6722 146.501L80.8109 146.543C83.5254 146.628 83.9496 146.501 83.8647 145.949C83.7799 145.483 83.2285 145.271 82.253 145.271C81.4471 145.271 80.3443 145.101 79.7929 144.932C79.0295 144.635 78.9022 144.423 79.3264 143.956C79.7081 143.447 79.9202 143.489 80.6836 143.998C81.1926 144.338 82.3802 144.635 83.3134 144.635ZM99.1341 145.144C99.0493 145.398 98.5827 145.865 98.0737 146.204C97.2678 146.755 97.2254 146.713 97.3951 145.695C97.5647 144.974 97.9041 144.635 98.4555 144.635C98.922 144.635 99.2189 144.847 99.1341 145.144ZM88.4031 150.785C86.6217 151.548 84.9675 152.015 85.3069 151.633C85.6462 151.294 88.6576 150.191 89.2514 150.191C89.5059 150.191 89.1242 150.445 88.4031 150.785ZM60.0276 152.481C61.1728 151.972 61.6818 151.888 61.809 152.227C61.8939 152.481 62.2756 152.99 62.6149 153.33C63.2936 154.051 63.6329 154.051 57.9917 153.33C55.9982 153.033 55.4044 152.778 55.7437 152.269C55.871 152.057 56.5072 152.184 57.1858 152.566C58.2886 153.245 58.5007 153.202 60.0276 152.481Z" fill="white"></path><path d="M69.5708 18.4504C69.5708 18.6625 69.8253 20.0198 70.1646 21.4195C70.5039 22.8191 70.8008 25.9578 70.8432 28.4179C70.8432 31.3021 70.9705 32.5746 71.225 32.0232C71.8188 30.7083 71.6915 26.2547 71.0129 22.7343C70.5039 19.9349 69.5708 17.178 69.5708 18.4504Z" fill="white"></path><path d="M57.907 20.6137C57.4829 21.7165 57.6101 27.0608 58.0767 27.3577C58.3312 27.5274 58.5008 26.2125 58.5008 23.7949C58.5008 19.9351 58.3736 19.3413 57.907 20.6137Z" fill="white"></path><path d="M68.1715 30.454C68.3835 34.5258 68.5956 35.0348 68.638 31.5992C68.638 29.945 68.5108 28.3757 68.3411 28.1212C68.1715 27.8243 68.0866 28.8846 68.1715 30.454Z" fill="white"></path><path d="M56.1257 29.7754C55.7439 32.0234 55.8288 39.1491 56.2953 41.1426C56.5498 42.1181 56.6346 40.7609 56.6346 36.9011C56.5922 33.7624 56.7619 30.4541 56.9315 29.5633C57.1436 28.6302 57.1012 27.994 56.8467 27.994C56.6346 27.994 56.2953 28.7999 56.1257 29.7754Z" fill="white"></path><path d="M79.9626 32.4898C79.793 33.0836 79.7506 33.6774 79.8354 33.8046C79.9626 33.8895 80.1747 33.4653 80.3019 32.8291C80.4716 32.2353 80.514 31.6415 80.4292 31.5142C80.3019 31.4294 80.0899 31.8536 79.9626 32.4898Z" fill="white"></path><path d="M58.5431 40.7184C58.5007 41.5243 58.3735 43.5178 58.2462 45.172C58.119 47.0806 58.1614 47.9289 58.4159 47.5048C58.9673 46.6141 59.349 41.1001 58.9249 40.0822C58.628 39.4035 58.5431 39.4884 58.5431 40.7184Z" fill="white"></path><path d="M68.3408 42.2028C68.3408 43.348 68.5105 44.7902 68.6801 45.384C68.9346 46.1898 69.0194 45.8929 69.0194 44.1115C69.0194 42.8391 68.8922 41.397 68.6801 40.9304C68.4256 40.2942 68.2984 40.6335 68.3408 42.2028Z" fill="white"></path><path d="M44.6312 43.0935C44.8857 45.3839 45.734 47.6319 47.3034 50.092C47.8548 50.9827 48.3213 52.0007 48.3213 52.34C48.3213 52.7217 48.9151 53.6548 49.6362 54.5031C50.6117 55.6059 51.2479 55.9876 52.1387 55.9028C52.7749 55.8604 53.8353 56.1573 54.4715 56.5815C55.447 57.2177 56.677 57.3449 63.1241 57.3873L70.5891 57.4722L73.3037 55.6483C74.873 54.5455 76.3151 53.8669 76.7393 53.9942C77.5451 54.2062 80.9383 51.1524 80.4718 50.6858C80.3445 50.5586 79.6659 51.1099 78.9024 51.9582C77.5876 53.4852 77.4603 53.4428 77.0362 51.5341C76.9089 50.9403 76.8241 51.0675 76.7393 51.9582C76.6544 53.061 76.5696 52.9338 76.103 51.1099L75.5516 48.9892L75.5092 51.1948C75.4668 53.3155 75.382 53.4428 73.6006 54.7152C71.395 56.1997 71.2253 56.2421 71.2253 55.2242C71.2253 54.8424 71.0133 54.2062 70.8012 53.8669C70.5467 53.4428 70.4619 53.7397 70.6739 54.8L70.9284 56.4118L65.5417 56.4542C62.6151 56.4966 59.9006 56.4966 59.5613 56.4966C58.204 56.4966 58.0767 56.3694 58.0343 54.588C57.9919 52.9338 57.9919 52.8914 57.6526 53.9942C57.4405 54.6728 57.3981 55.4787 57.4829 55.7756C57.9071 56.7935 56.8043 56.8784 55.1077 55.9452C53.4111 55.0121 53.4111 54.9697 53.3687 52.4248C53.3687 50.2616 53.2839 50.0072 52.9445 50.8979C52.6901 51.4917 52.5628 52.5945 52.6476 53.3155C52.7325 54.079 52.6901 54.7152 52.5204 54.7152C52.3507 54.7152 52.0962 53.9942 52.0114 53.1034C51.8418 51.5765 51.8418 51.5765 51.7993 53.4003L51.7145 55.309L50.4421 54.079C49.7634 53.4003 49.1696 52.6369 49.1696 52.34C49.1696 52.0855 48.3637 50.4737 47.3882 48.8195C46.2006 46.7412 45.5644 45.1295 45.4371 43.6449C45.3523 42.4997 45.0554 41.4394 44.8009 41.2697C44.5464 41.1 44.4616 41.7787 44.6312 43.0935Z" fill="white"></path><path d="M80.1324 67.6516C79.5386 67.9909 78.6903 68.3727 78.2238 68.5423C77.5451 68.7544 77.5027 68.8392 78.0117 69.0513C78.351 69.1785 78.8176 69.4754 78.9872 69.7299C79.2417 70.0268 79.2841 69.8996 79.1145 69.433C78.9448 68.8392 79.0721 68.7544 79.8779 68.9665C80.3869 69.0937 81.4897 68.8816 82.2956 68.5423C83.1015 68.1606 83.3984 67.9485 82.9742 68.0758C80.1748 68.8392 79.9628 68.8816 80.599 68.203C80.8959 67.8213 81.4473 67.6516 81.7866 67.7788C82.1683 67.9061 82.2956 67.8213 82.0835 67.5244C81.7018 66.9306 81.4897 66.9306 80.1324 67.6516Z" fill="white"></path><path d="M52.9866 70.409C52.9866 70.621 53.1986 70.8331 53.4531 70.8331C53.6652 70.8331 53.75 71.0028 53.6228 71.2572C53.4956 71.4693 53.7076 71.6814 54.0894 71.6814C54.768 71.6814 54.768 71.639 54.0469 70.8331C53.1986 69.8576 52.9866 69.8151 52.9866 70.409Z" fill="white"></path><path d="M75.2546 72.0629C75.1274 72.4022 75.1274 72.7415 75.2546 72.8688C75.3819 72.996 75.4667 72.8688 75.4667 72.6143C75.4667 72.3174 75.8484 72.1053 76.2726 72.1053C76.7391 72.1053 77.2057 71.9781 77.2905 71.766C77.4178 71.5963 77.036 71.4691 76.4846 71.4691C75.9333 71.4691 75.3819 71.7236 75.2546 72.0629Z" fill="white"></path><path d="M77.7996 72.1054C77.6723 72.3175 77.842 72.5295 78.1813 72.5295C78.5206 72.5295 78.9448 72.3175 79.072 72.1054C79.1993 71.8509 79.0296 71.6812 78.6903 71.6812C78.351 71.6812 77.9268 71.8509 77.7996 72.1054Z" fill="white"></path><path d="M75.8907 76.4315C76.6965 76.686 77.1207 76.9829 76.8238 77.0677C76.4421 77.2374 76.5269 77.4919 77.1207 78.0009C77.5873 78.425 78.1811 79.2309 78.4355 79.7823C78.8173 80.673 78.8597 80.5882 78.69 79.1885C78.5628 78.1705 78.6476 77.6191 78.9869 77.5767C79.8352 77.5343 76.1876 75.965 75.2544 76.0074C74.7879 76.0074 75.0848 76.177 75.8907 76.4315Z" fill="white"></path><path d="M77.1633 80.8851C77.1633 81.4364 77.3754 81.8606 77.5875 81.8606C78.1389 81.8606 78.1389 81.394 77.5875 80.5882C77.2482 80.0792 77.1633 80.1216 77.1633 80.8851Z" fill="white"></path><path d="M75.0425 92.0402C75.0425 92.2523 75.4242 92.4644 75.8484 92.4644C76.3149 92.4644 76.8239 92.2523 76.9511 92.0402C77.1208 91.7857 76.7391 91.6161 76.1453 91.6161C75.5515 91.6161 75.0425 91.7857 75.0425 92.0402Z" fill="white"></path><path d="M74.067 93.1854C73.8973 93.3126 73.8125 94.0337 73.8125 94.7548C73.8549 95.4758 73.9397 95.7303 74.067 95.3061C74.1518 94.9244 74.4063 94.6699 74.576 94.7972C74.788 94.882 74.8305 94.5003 74.7032 93.9489C74.4911 92.8037 74.4487 92.7613 74.067 93.1854Z" fill="white"></path><path d="M94.1716 67.1851C93.8747 67.7365 93.7051 68.5424 93.8323 68.9665C94.002 69.6028 94.0444 69.5604 94.0868 68.7545C94.0868 68.1607 94.4261 67.3548 94.8503 66.9306C95.232 66.5065 95.3592 66.1672 95.1047 66.1672C94.8927 66.1672 94.4685 66.6337 94.1716 67.1851Z" fill="white"></path><path d="M97.5225 67.8214C97.5225 68.0335 97.7769 68.3304 98.0739 68.4576C98.498 68.6697 98.498 68.7545 98.0739 68.9666C97.2256 69.3483 97.4376 70.3239 98.4132 70.6208C98.8797 70.7904 99.3887 70.7904 99.5584 70.6632C99.6856 70.4935 99.3887 70.2815 98.8797 70.1118C97.5649 69.7725 98.1587 69.1363 99.7704 69.1787C100.916 69.1787 101 69.2635 100.279 69.5604C99.516 69.8997 99.516 69.9422 100.195 69.9422C100.619 69.9846 100.873 70.1542 100.746 70.3239C100.619 70.536 100.788 70.7056 101.128 70.7056C101.552 70.7056 101.637 70.536 101.34 70.1966C101.085 69.8997 101.085 69.5604 101.34 69.3059C101.594 69.0514 101.34 68.8818 100.619 68.797C99.9825 68.7545 99.0494 68.4152 98.498 68.0759C97.9466 67.6942 97.5225 67.6093 97.5225 67.8214Z" fill="white"></path><path d="M93.7051 72.9111C93.7051 73.0808 94.1716 73.1656 94.7654 73.0383C95.3593 72.9535 95.8258 72.7839 95.8258 72.699C95.8258 72.6142 95.3593 72.5294 94.7654 72.5294C94.1716 72.5294 93.7051 72.699 93.7051 72.9111Z" fill="white"></path><path d="M102.527 74.9046C103.079 75.965 104.309 77.0253 104.309 76.474C104.309 76.2619 103.8 75.6257 103.206 75.0319C102.188 74.1411 102.103 74.0987 102.527 74.9046Z" fill="white"></path><path d="M105.03 75.7951C104.606 76.2193 104.691 77.1948 105.115 77.1948C105.369 77.1948 105.496 76.8131 105.454 76.3465C105.412 75.371 105.412 75.4134 105.03 75.7951Z" fill="white"></path><path d="M98.4554 79.9519C98.2009 80.5033 98.1585 81.0971 98.3281 81.2243C98.5402 81.3091 98.8371 80.9274 98.9643 80.3336C99.3461 78.8491 99.0492 78.637 98.4554 79.9519Z" fill="white"></path><path d="M105.624 79.528C105.624 79.7401 105.878 80.8853 106.217 82.0729C106.769 84.0664 106.811 84.1088 106.811 82.7091C106.811 81.9033 106.557 80.7581 106.217 80.1643C105.878 79.5705 105.624 79.2735 105.624 79.528Z" fill="white"></path><path d="M93.3233 83.4726C93.0264 84.0664 93.0688 84.2361 93.6626 84.2361C94.0443 84.2361 94.3836 83.8968 94.3836 83.4726C94.3836 83.0485 94.214 82.7092 94.0443 82.7092C93.8747 82.7092 93.5354 83.0485 93.3233 83.4726Z" fill="white"></path><path d="M89.2938 87.29C89.1241 87.5869 89.1241 87.7989 89.3362 87.8414C89.5058 87.8414 90.0148 87.9262 90.3966 88.011C90.8631 88.0958 91.0328 87.9262 90.8631 87.502C90.6935 87.0355 90.5238 86.9931 90.3117 87.3748C90.0572 87.7565 89.93 87.7565 89.8027 87.3324C89.6755 86.9082 89.5483 86.9082 89.2938 87.29Z" fill="white"></path><path d="M101.764 88.52C101.764 89.029 101.51 89.5379 101.255 89.6228C100.916 89.7924 100.958 89.8773 101.382 89.8773C102.273 89.9197 102.655 88.9866 102.146 88.1807C101.849 87.7141 101.764 87.7989 101.764 88.52Z" fill="white"></path><path d="M88.6575 88.6472C88.6151 88.9865 88.4879 89.7499 88.3606 90.3437C88.1485 91.1496 88.191 91.2769 88.5727 90.9376C88.8696 90.6831 89.0393 89.9196 88.912 89.241C88.8272 88.5623 88.6999 88.3078 88.6575 88.6472Z" fill="white"></path><path d="M91.16 95.0092C91.4994 95.2212 92.2204 95.4333 92.7718 95.4333C93.3232 95.4333 94.1291 95.6454 94.5532 95.8575C95.2319 96.1968 95.3167 96.1544 95.147 95.6878C94.8926 95.0092 93.6201 94.585 91.7963 94.585C90.8207 94.585 90.6511 94.7123 91.16 95.0092Z" fill="white"></path><path d="M86.9185 97.9361C86.9185 98.5299 88.5726 100.354 88.615 99.7599C88.615 99.5054 88.2333 98.8692 87.7668 98.4026C87.3002 97.9361 86.9185 97.724 86.9185 97.9361Z" fill="white"></path><path d="M91.8812 98.8692C92.0509 99.3782 92.3478 99.6327 92.7295 99.5054C93.0688 99.3782 94.0444 99.2509 94.8927 99.2085C96.462 99.1661 96.462 99.1661 94.3413 98.5723C91.6267 97.8088 91.6267 97.8088 91.8812 98.8692Z" fill="white"></path><path d="M94.6382 101.371C95.6138 101.965 98.1162 102.092 98.3707 101.583C98.498 101.329 97.6497 101.117 96.25 101.032C94.511 100.99 94.0868 101.032 94.6382 101.371Z" fill="white"></path><path d="M90.9903 104.256C90.8631 104.51 90.9479 104.85 91.2024 104.977C91.8386 105.401 92.2628 104.85 91.7114 104.298C91.4145 104.001 91.16 104.001 90.9903 104.256Z" fill="white"></path><path d="M37.2932 81.6486C37.2932 82.3272 37.9718 82.4969 38.3112 81.9031C38.4384 81.691 38.2688 81.4365 37.9294 81.2669C37.5477 81.1396 37.2932 81.2669 37.2932 81.6486Z" fill="white"></path><path d="M43.4437 98.4871C43.274 98.9113 43.274 99.5899 43.4437 99.9717C43.783 100.693 43.783 100.693 43.9526 99.9717C44.0799 99.5899 44.0799 98.9113 43.9526 98.4871C43.783 97.8085 43.783 97.8085 43.4437 98.4871Z" fill="white"></path><path d="M43.9948 105.91C43.7827 107.564 43.8675 108.073 44.3341 107.606C44.7582 107.182 44.8855 104.34 44.5038 104.34C44.3341 104.34 44.0796 105.061 43.9948 105.91Z" fill="white"></path><path d="M27.665 136.194C26.3077 136.703 26.435 138.06 28.0043 139.205C28.7254 139.757 29.4464 140.096 29.5737 139.969C30.0827 139.63 30.1675 137.042 29.7009 136.279C29.3616 135.685 29.2768 135.643 29.2344 136.152C29.2344 136.576 29.1071 136.618 28.895 136.321C28.7254 136.024 28.2588 135.982 27.665 136.194Z" fill="white"></path><path d="M116.482 115.623C115.803 116.004 115.337 116.386 115.464 116.471C115.761 116.768 117.881 115.708 117.881 115.283C117.881 114.859 117.924 114.859 116.482 115.623Z" fill="white"></path><path d="M112.579 117.913C112.41 118.168 112.028 118.295 111.689 118.168C111.392 118.041 111.01 118.126 110.883 118.338C110.756 118.507 111.137 118.634 111.731 118.55C112.919 118.422 113.513 118.041 113.131 117.659C113.004 117.532 112.749 117.659 112.579 117.913Z" fill="white"></path><path d="M105.581 124.275C105.835 124.742 106.132 125.124 106.217 125.124C106.344 125.124 106.429 124.742 106.429 124.275C106.429 123.809 106.132 123.427 105.793 123.427C105.242 123.427 105.199 123.597 105.581 124.275Z" fill="white"></path><path d="M101.976 127.669C102.103 127.881 102.697 128.093 103.291 128.093C103.842 128.093 104.309 127.881 104.309 127.669C104.309 127.414 103.715 127.244 102.994 127.244C102.273 127.244 101.806 127.414 101.976 127.669Z" fill="white"></path><path d="M66.3049 112.314C65.7111 112.399 65.3294 112.951 64.99 114.096C64.5235 115.962 65.0749 116.429 65.7111 114.732C65.9232 114.138 66.2201 113.672 66.3473 113.672C66.517 113.672 66.4746 113.841 66.3473 114.096C66.2201 114.308 66.2625 114.52 66.517 114.52C66.9411 114.52 67.7046 112.484 67.3653 112.272C67.2804 112.187 66.8139 112.23 66.3049 112.314Z" fill="white"></path><path d="M63.5481 113.502C62.9967 114.096 62.0212 114.902 61.3849 115.283C60.0277 116.089 59.9004 116.471 60.9608 116.81C61.3425 116.937 60.876 116.937 59.9004 116.81C58.4583 116.598 58.0766 116.725 57.6949 117.446C56.9314 118.804 57.101 118.889 59.6884 118.634C61.0032 118.507 61.8515 118.507 61.597 118.634C61.3001 118.761 61.0456 119.101 61.0456 119.44C61.0456 120.585 62.6998 119.27 63.4209 117.574C64.0571 115.962 64.9054 112.738 64.6933 112.526C64.6509 112.442 64.1419 112.908 63.5481 113.502Z" fill="white"></path><path d="M58.7128 124.064C57.9493 125.845 55.7438 128.39 54.132 129.408C52.6051 130.298 53.1989 130.765 54.9379 130.002C56.38 129.408 59.7732 124.742 59.7732 123.385C59.7732 122.155 59.3914 122.409 58.7128 124.064Z" fill="white"></path><path d="M44.2918 128.517C44.419 128.729 44.8856 128.941 45.2673 128.941C45.6491 128.983 46.4549 129.28 47.0488 129.62C47.6426 129.959 47.8122 130.171 47.3881 130.044C46.2005 129.704 44.2918 132.758 45.3522 133.395C45.5642 133.522 45.7763 133.437 45.7763 133.225C45.7763 132.97 46.4549 132.504 47.2608 132.165C48.2788 131.74 48.6605 131.316 48.4909 130.892C48.3212 130.426 48.4909 130.341 49.0847 130.51C49.5512 130.595 49.8905 131.019 49.8481 131.401C49.8057 132.165 50.9933 132.207 54.2169 131.656C56.0831 131.359 55.6165 130.977 53.2413 130.892C52.0961 130.85 50.3571 130.298 48.7029 129.45C46.2005 128.135 43.7404 127.626 44.2918 128.517Z" fill="white"></path><path d="M63.4208 130.977C63.2511 131.443 62.6573 132.249 62.0211 132.801C61.2152 133.564 60.9607 133.649 61.1728 133.098C61.3001 132.673 61.2576 132.249 61.0456 132.122C60.7911 131.952 60.6214 132.165 60.6214 132.504C60.6214 133.649 58.4159 134.964 56.8889 134.709C55.7437 134.54 55.4892 134.625 55.7013 135.091C55.8285 135.43 55.7437 135.727 55.5316 135.727C55.2772 135.727 55.1075 135.346 55.1075 134.879C55.1075 134.413 54.9378 134.031 54.6833 134.031C53.5806 134.031 53.0292 137.594 53.6654 140.775C53.8351 141.665 54.1744 142.09 54.7258 142.09C55.1499 142.09 55.6165 142.302 55.7861 142.556C56.083 143.065 57.3979 140.435 57.8645 138.315C57.9917 137.594 58.3734 137 58.6279 137C58.9248 137 58.84 136.745 58.4159 136.448C57.822 135.982 57.8645 135.812 59.0097 135.176C60.1973 134.497 60.2397 134.497 60.0276 135.218C59.9428 135.6 59.6035 137.042 59.349 138.357C59.0945 139.672 58.4159 141.453 57.822 142.302C56.6344 144.125 56.592 144.21 57.4827 144.21C57.8645 144.21 58.4583 144.55 58.7552 144.931C59.3914 145.865 59.6883 145.61 60.4093 143.489C60.8759 142.09 61.1728 141.835 62.6149 141.581C64.1419 141.326 66.6019 141.411 69.8679 141.92C71.0555 142.09 71.1827 142.259 70.9706 143.108C70.6737 144.253 71.522 145.016 71.9038 143.998C72.1158 143.532 72.4976 143.362 73.1338 143.532C73.8548 143.701 74.1518 143.574 74.3214 142.938C74.4487 142.514 74.4062 142.09 74.2366 142.005C73.2186 141.538 71.2675 138.145 70.801 136.024C70.1223 133.013 69.3165 132.249 69.6134 134.921C69.7406 135.939 69.9951 137.085 70.1223 137.424C70.3344 137.933 69.9951 138.06 68.5954 138.103C67.5775 138.103 66.5171 137.848 66.1778 137.509C65.796 137.127 65.1174 137 64.3539 137.169C62.9542 137.466 62.827 136.915 64.057 135.685C64.6508 135.091 65.2446 134.879 65.9657 135.049C66.7716 135.261 66.9836 135.134 66.9836 134.497C66.9836 133.734 66.7292 133.395 65.075 131.952C64.6932 131.656 64.4812 131.147 64.6084 130.807C64.7357 130.468 64.566 130.213 64.2267 130.213C63.9298 130.213 63.548 130.553 63.4208 130.977Z" fill="white"></path><path d="M72.0735 131.613C72.0735 131.698 72.837 132.589 73.7701 133.607C75.3394 135.303 76.0181 136.533 75.0425 135.939C74.788 135.77 74.6184 136.152 74.6184 136.745C74.6184 137.339 74.8304 137.848 75.0425 137.848C75.297 137.848 75.4667 137.509 75.4667 137.127C75.4667 136.236 76.1453 136.873 76.4422 138.06C76.5695 138.569 76.6543 138.357 76.6967 137.466C76.7391 135.77 75.4667 133.564 73.7701 132.334C72.6673 131.528 72.0735 131.316 72.0735 131.613Z" fill="white"></path><path d="M48.2789 132.546C48.2364 132.758 48.2364 133.31 48.2789 133.692C48.3213 134.073 48.0668 134.837 47.7275 135.388C47.3881 135.94 47.0488 136.915 47.0064 137.636C46.8368 139.587 47.5154 144.21 47.9395 144.21C48.1516 144.21 48.3637 143.914 48.3637 143.574C48.4061 143.235 48.4485 142.811 48.4909 142.599C48.9575 140.817 49.1696 133.564 48.7878 132.886C48.5333 132.462 48.3213 132.292 48.2789 132.546Z" fill="white"></path><path d="M62.8693 144.083C61.1303 145.865 61.0879 146.374 62.7845 145.483C63.5055 145.059 65.1173 142.556 64.778 142.344C64.6931 142.302 63.8448 143.065 62.8693 144.083Z" fill="white"></path><path d="M53.4958 143.956C53.114 144.804 53.114 145.356 53.3685 145.61C54.0472 146.289 54.3441 145.738 54.1744 144.126L54.0047 142.726L53.4958 143.956Z" fill="white"></path><path d="M55.1925 144.932C55.3198 146.204 56.1681 146.671 56.5074 145.695C56.8891 144.804 56.4226 143.787 55.6591 143.787C55.2349 143.787 55.1077 144.168 55.1925 144.932Z" fill="white"></path><path d="M63.5904 145.949C62.7846 146.586 62.318 147.179 62.6149 147.179C63.2511 147.179 65.5839 145.228 65.287 144.931C65.1598 144.804 64.3963 145.271 63.5904 145.949Z" fill="white"></path><path d="M83.1012 123.088C83.1012 123.385 83.3981 124.106 83.7798 124.615C84.5857 125.803 84.2464 125.803 82.677 124.615C81.9984 124.106 81.3198 123.809 81.1925 123.936C80.8956 124.191 82.3377 126.821 82.7619 126.821C83.5253 126.821 84.3736 128.305 84.416 129.705L84.4585 131.274L84.925 129.366C85.1795 128.263 85.8157 127.118 86.3671 126.651C87.3427 125.93 87.3427 125.845 86.664 125.082C86.0702 124.403 86.0278 124.191 86.5368 123.597C87.0882 122.918 87.0034 122.876 85.6885 123.131C84.8402 123.3 84.0343 123.258 83.695 122.961C83.2284 122.579 83.1012 122.622 83.1012 123.088Z" fill="white"></path><path d="M80.8531 127.584C80.7258 128.22 80.7682 128.899 80.9803 129.068C81.4469 129.577 83.5676 129.238 83.4404 128.729C83.3555 128.474 83.1435 128.347 82.9314 128.432C82.4224 128.602 81.362 127.626 81.6165 127.244C81.7438 127.032 81.659 126.778 81.4469 126.651C81.2348 126.523 80.9803 126.948 80.8531 127.584Z" fill="white"></path><path d="M81.8291 131.189C81.8291 131.529 82.2957 132.207 82.8895 132.759C83.7802 133.564 83.9498 133.649 83.9498 133.055C83.9498 132.419 82.5502 130.638 82.0412 130.638C81.9139 130.638 81.8291 130.892 81.8291 131.189Z" fill="white"></path></svg>